<svg width="25" height="24" viewBox="0 0 25 24" fill="none" xmlns="http://www.w3.org/2000/svg">
<path fill-rule="evenodd" clip-rule="evenodd" d="M8.13004 1.066C9.30304 1.012 9.67704 1 12.665 1C15.653 1 16.027 1.013 17.199 1.066C18.371 1.119 19.171 1.306 19.871 1.577C20.604 1.854 21.269 2.287 21.819 2.847C22.379 3.396 22.811 4.06 23.087 4.794C23.359 5.494 23.545 6.294 23.599 7.464C23.653 8.639 23.665 9.013 23.665 12C23.665 14.988 23.652 15.362 23.599 16.535C23.546 17.705 23.359 18.505 23.087 19.205C22.811 19.9391 22.3783 20.6042 21.819 21.154C21.269 21.714 20.604 22.146 19.871 22.422C19.171 22.694 18.371 22.88 17.201 22.934C16.027 22.988 15.653 23 12.665 23C9.67704 23 9.30304 22.987 8.13004 22.934C6.96004 22.881 6.16004 22.694 5.46004 22.422C4.72596 22.146 4.06086 21.7133 3.51104 21.154C2.95142 20.6047 2.51835 19.9399 2.24204 19.206C1.97104 18.506 1.78504 17.706 1.73104 16.536C1.67704 15.361 1.66504 14.987 1.66504 12C1.66504 9.012 1.67804 8.638 1.73104 7.466C1.78404 6.294 1.97104 5.494 2.24204 4.794C2.51876 4.06008 2.95216 3.39531 3.51204 2.846C4.06108 2.2865 4.72551 1.85344 5.45904 1.577C6.15904 1.306 6.95904 1.12 8.12904 1.066H8.13004ZM17.11 3.046C15.95 2.993 15.602 2.982 12.665 2.982C9.72804 2.982 9.38004 2.993 8.22004 3.046C7.14704 3.095 6.56504 3.274 6.17704 3.425C5.66404 3.625 5.29704 3.862 4.91204 4.247C4.54708 4.60205 4.26622 5.03428 4.09004 5.512C3.93904 5.9 3.76004 6.482 3.71104 7.555C3.65804 8.715 3.64704 9.063 3.64704 12C3.64704 14.937 3.65804 15.285 3.71104 16.445C3.76004 17.518 3.93904 18.1 4.09004 18.488C4.26604 18.965 4.54704 19.398 4.91204 19.753C5.26704 20.118 5.70004 20.399 6.17704 20.575C6.56504 20.726 7.14704 20.905 8.22004 20.954C9.38004 21.007 9.72704 21.018 12.665 21.018C15.603 21.018 15.95 21.007 17.11 20.954C18.183 20.905 18.765 20.726 19.153 20.575C19.666 20.375 20.033 20.138 20.418 19.753C20.783 19.398 21.064 18.965 21.24 18.488C21.391 18.1 21.57 17.518 21.619 16.445C21.672 15.285 21.683 14.937 21.683 12C21.683 9.063 21.672 8.715 21.619 7.555C21.57 6.482 21.391 5.9 21.24 5.512C21.04 4.999 20.803 4.632 20.418 4.247C20.063 3.88207 19.6307 3.60121 19.153 3.425C18.765 3.274 18.183 3.095 17.11 3.046V3.046ZM11.26 15.391C12.0447 15.7176 12.9184 15.7617 13.732 15.5157C14.5455 15.2697 15.2484 14.7489 15.7206 14.0422C16.1929 13.3356 16.4051 12.4869 16.3211 11.6411C16.2371 10.7953 15.862 10.005 15.26 9.405C14.8763 9.02148 14.4123 8.72781 13.9014 8.54515C13.3905 8.36248 12.8455 8.29536 12.3055 8.34862C11.7656 8.40187 11.2442 8.57418 10.7788 8.85313C10.3135 9.13208 9.91578 9.51074 9.61434 9.96185C9.3129 10.413 9.11523 10.9253 9.03555 11.462C8.95588 11.9986 8.99619 12.5463 9.15358 13.0655C9.31097 13.5847 9.58152 14.0626 9.94576 14.4647C10.31 14.8668 10.7589 15.1832 11.26 15.391ZM8.66704 8.002C9.19206 7.47698 9.81536 7.0605 10.5013 6.77636C11.1873 6.49222 11.9225 6.34597 12.665 6.34597C13.4075 6.34597 14.1428 6.49222 14.8287 6.77636C15.5147 7.0605 16.138 7.47698 16.663 8.002C17.1881 8.52702 17.6045 9.15032 17.8887 9.8363C18.1728 10.5223 18.3191 11.2575 18.3191 12C18.3191 12.7425 18.1728 13.4777 17.8887 14.1637C17.6045 14.8497 17.1881 15.473 16.663 15.998C15.6027 17.0583 14.1646 17.654 12.665 17.654C11.1655 17.654 9.72737 17.0583 8.66704 15.998C7.6067 14.9377 7.01101 13.4995 7.01101 12C7.01101 10.5005 7.6067 9.06234 8.66704 8.002V8.002ZM19.573 7.188C19.7031 7.06527 19.8073 6.91768 19.8793 6.75397C19.9514 6.59027 19.9898 6.41377 19.9925 6.23493C19.9951 6.05609 19.9618 5.87855 19.8945 5.71281C19.8273 5.54707 19.7275 5.39651 19.601 5.27004C19.4745 5.14357 19.324 5.04376 19.1582 4.97652C18.9925 4.90928 18.8149 4.87598 18.6361 4.87858C18.4573 4.88119 18.2808 4.91965 18.1171 4.9917C17.9534 5.06374 17.8058 5.1679 17.683 5.298C17.4443 5.55103 17.3137 5.88712 17.3187 6.23493C17.3238 6.58274 17.4642 6.91488 17.7102 7.16084C17.9562 7.40681 18.2883 7.54723 18.6361 7.5523C18.9839 7.55737 19.32 7.42669 19.573 7.188V7.188Z" fill="#B6B6DD"/>
</svg>
