<svg width="25" height="24" viewBox="0 0 25 24" fill="none" xmlns="http://www.w3.org/2000/svg">
<g clip-path="url(#clip0_260_1959)">
<path d="M24.1652 6.50708C24.0293 6.02231 23.7646 5.58342 23.3992 5.23708C23.0235 4.88008 22.563 4.62471 22.0612 4.49508C20.1832 4.00008 12.6592 4.00008 12.6592 4.00008C9.5225 3.96439 6.3866 4.12135 3.26917 4.47008C2.76736 4.60929 2.30773 4.87036 1.93117 5.23008C1.56117 5.58608 1.29317 6.02508 1.15317 6.50608C0.816861 8.31782 0.65346 10.1574 0.665168 12.0001C0.653168 13.8411 0.816168 15.6801 1.15317 17.4941C1.29017 17.9731 1.55717 18.4101 1.92817 18.7631C2.29917 19.1161 2.76117 19.3711 3.26917 19.5061C5.17217 20.0001 12.6592 20.0001 12.6592 20.0001C15.7998 20.0358 18.9397 19.8789 22.0612 19.5301C22.563 19.4004 23.0235 19.1451 23.3992 18.7881C23.7644 18.4418 24.0288 18.0029 24.1642 17.5181C24.5093 15.707 24.677 13.8667 24.6652 12.0231C24.6911 10.1717 24.5235 8.32264 24.1652 6.50608V6.50708ZM10.2672 15.4241V8.57708L16.5272 12.0011L10.2672 15.4241Z" fill="#B6B6DD"/>
</g>
<defs>
<clipPath id="clip0_260_1959">
<rect width="24" height="24" fill="white" transform="translate(0.665039)"/>
</clipPath>
</defs>
</svg>
