<svg width="504" height="137" viewBox="0 0 504 137" fill="none" xmlns="http://www.w3.org/2000/svg">
<path d="M308.031 49.26H306.031V51.26H308.031V49.26ZM308.031 40.35V38.35H306.031V40.35H308.031ZM353.031 40.35H355.031V38.35H353.031V40.35ZM353.031 49.26V51.26H355.031V49.26H353.031ZM335.661 49.26V47.26H333.661V49.26H335.661ZM335.661 102V104H337.661V102H335.661ZM325.581 102H323.581V104H325.581V102ZM325.581 49.26H327.581V47.26H325.581V49.26ZM310.031 49.26V40.35H306.031V49.26H310.031ZM308.031 42.35H353.031V38.35H308.031V42.35ZM351.031 40.35V49.26H355.031V40.35H351.031ZM353.031 47.26H335.661V51.26H353.031V47.26ZM333.661 49.26V102H337.661V49.26H333.661ZM335.661 100H325.581V104H335.661V100ZM327.581 102V49.26H323.581V102H327.581ZM325.581 47.26H308.031V51.26H325.581V47.26ZM354.11 102H352.11V104H354.11V102ZM354.11 57V55H352.11V57H354.11ZM363.83 57H365.83V55H363.83V57ZM363.83 62.4H361.83V66.0763L364.916 64.0791L363.83 62.4ZM379.13 56.01H381.13V53.5984L378.76 54.0445L379.13 56.01ZM379.13 65.82L379.518 67.782L381.13 67.4633V65.82H379.13ZM365.9 69.78L366.657 71.6311L366.683 71.6203L366.709 71.6089L365.9 69.78ZM363.92 70.59L363.163 68.7389L361.92 69.2473V70.59H363.92ZM363.92 102V104H365.92V102H363.92ZM356.11 102V57H352.11V102H356.11ZM354.11 59H363.83V55H354.11V59ZM361.83 57V62.4H365.83V57H361.83ZM364.916 64.0791C369.835 60.8965 374.695 58.88 379.5 57.9755L378.76 54.0445C373.365 55.06 368.025 57.3035 362.743 60.7209L364.916 64.0791ZM377.13 56.01V65.82H381.13V56.01H377.13ZM378.742 63.858C373.479 64.8982 368.92 66.256 365.09 67.9511L366.709 71.6089C370.2 70.064 374.46 68.7818 379.518 67.782L378.742 63.858ZM365.143 67.9289L363.163 68.7389L364.677 72.4411L366.657 71.6311L365.143 67.9289ZM361.92 70.59V102H365.92V70.59H361.92ZM363.92 100H354.11V104H363.92V100ZM413.899 57V55H411.899V57H413.899ZM423.619 57H425.619V55H423.619V57ZM423.619 102V104H425.619V102H423.619ZM413.899 102H411.899V104H413.899V102ZM413.899 99.21H415.899V95.7519L412.902 97.4764L413.899 99.21ZM389.329 98.04L387.633 99.1L387.638 99.1069L387.642 99.1138L389.329 98.04ZM386.179 57V55H384.179V57H386.179ZM395.989 57H397.989V55H395.989V57ZM397.339 91.47L399.14 90.5989L397.339 91.47ZM412.549 92.46L411.807 90.603L411.772 90.6171L411.737 90.6324L412.549 92.46ZM413.899 91.92L414.642 93.777L415.899 93.2741V91.92H413.899ZM413.899 59H423.619V55H413.899V59ZM421.619 57V102H425.619V57H421.619ZM423.619 100H413.899V104H423.619V100ZM415.899 102V99.21H411.899V102H415.899ZM412.902 97.4764C408.721 99.882 405.016 100.99 401.749 100.99V104.99C405.923 104.99 410.318 103.578 414.897 100.944L412.902 97.4764ZM401.749 100.99C395.839 100.99 392.572 99.4102 391.017 96.9662L387.642 99.1138C390.287 103.27 395.3 104.99 401.749 104.99V100.99ZM391.025 96.98C389.247 94.1343 388.179 88.7868 388.179 80.49H384.179C384.179 88.8732 385.212 95.2257 387.633 99.1L391.025 96.98ZM388.179 80.49V57H384.179V80.49H388.179ZM386.179 59H395.989V55H386.179V59ZM393.989 57V80.58H397.989V57H393.989ZM393.989 80.58C393.989 83.3275 394.104 85.6735 394.342 87.5985C394.577 89.4905 394.947 91.1182 395.539 92.3411L399.14 90.5989C398.832 89.9618 398.527 88.8445 398.312 87.1065C398.1 85.4015 397.989 83.2325 397.989 80.58H393.989ZM395.539 92.3411C396.946 95.2495 400.073 96.26 403.639 96.26V92.26C400.606 92.26 399.532 91.4105 399.14 90.5989L395.539 92.3411ZM403.639 96.26C407.132 96.26 410.382 95.6118 413.362 94.2876L411.737 90.6324C409.317 91.7082 406.627 92.26 403.639 92.26V96.26ZM413.292 94.317L414.642 93.777L413.157 90.063L411.807 90.603L413.292 94.317ZM415.899 91.92V57H411.899V91.92H415.899ZM466.727 66.27L466.458 68.2519L468.677 68.5527L468.726 66.3139L466.727 66.27ZM444.677 66L445.706 67.715L445.718 67.7078L445.729 67.7005L444.677 66ZM444.857 72.93L443.962 74.7188L443.978 74.7267L443.994 74.7343L444.857 72.93ZM454.397 75.27L454.041 77.2381L454.054 77.2405L454.068 77.2428L454.397 75.27ZM465.107 79.32L463.781 80.8172H463.781L465.107 79.32ZM463.667 99.66L462.492 98.0412L462.485 98.0467L462.477 98.0523L463.667 99.66ZM436.577 101.46L436.936 99.4926L436.916 99.4888L436.895 99.4855L436.577 101.46ZM433.787 101.01L431.789 100.922L431.71 102.701L433.468 102.984L433.787 101.01ZM434.147 92.82L434.411 90.8375L432.245 90.5487L432.149 92.7322L434.147 92.82ZM456.467 93.09L455.483 91.3489L455.466 91.3584L455.449 91.3681L456.467 93.09ZM456.557 85.53L455.564 87.2665L455.613 87.294L455.662 87.3189L456.557 85.53ZM447.287 83.28L446.946 85.2508L446.96 85.2532L446.973 85.2553L447.287 83.28ZM436.577 79.41L437.79 77.8201L436.577 79.41ZM437.837 59.52L436.671 57.8946L436.664 57.8999L436.657 57.9052L437.837 59.52ZM464.117 57.54L464.497 55.5764L464.476 55.5725L464.456 55.569L464.117 57.54ZM466.907 58.08L468.906 58.1239L468.943 56.4371L467.287 56.1164L466.907 58.08ZM466.995 64.2881C459.908 63.3271 454.662 62.83 451.337 62.83V66.83C454.371 66.83 459.385 67.2928 466.458 68.2519L466.995 64.2881ZM451.337 62.83C448.122 62.83 445.399 63.2006 443.624 64.2995L445.729 67.7005C446.474 67.2394 448.191 66.83 451.337 66.83V62.83ZM443.648 64.285C441.741 65.4292 440.877 67.3187 440.877 69.51H444.877C444.877 68.4613 445.213 68.0108 445.706 67.715L443.648 64.285ZM440.877 69.51C440.877 70.5915 441.098 71.6448 441.641 72.5821C442.19 73.5303 442.996 74.2358 443.962 74.7188L445.751 71.1411C445.397 70.9642 445.214 70.7697 445.102 70.5779C444.985 70.3752 444.877 70.0485 444.877 69.51H440.877ZM443.994 74.7343C444.882 75.1589 446.192 75.558 447.8 75.9524C449.445 76.356 451.53 76.7843 454.041 77.2381L454.752 73.3019C452.284 72.8557 450.288 72.444 448.753 72.0676C447.181 71.682 446.212 71.3611 445.72 71.1257L443.994 74.7343ZM454.068 77.2428C458.999 78.0646 462.11 79.3373 463.781 80.8172L466.433 77.8228C463.904 75.5827 459.875 74.1554 454.725 73.2972L454.068 77.2428ZM463.781 80.8172C465.233 82.1037 466.257 84.6744 466.257 89.22H470.257C470.257 84.2856 469.18 80.2563 466.433 77.8228L463.781 80.8172ZM466.257 89.22C466.257 93.5006 464.902 96.2925 462.492 98.0412L464.841 101.279C468.551 98.5875 470.257 94.4194 470.257 89.22H466.257ZM462.477 98.0523C459.966 99.9105 456.052 100.99 450.437 100.99V104.99C456.461 104.99 461.367 103.849 464.856 101.268L462.477 98.0523ZM450.437 100.99C446.944 100.99 442.455 100.501 436.936 99.4926L436.217 103.427C441.859 104.459 446.609 104.99 450.437 104.99V100.99ZM436.895 99.4855L434.105 99.0355L433.468 102.984L436.258 103.434L436.895 99.4855ZM435.785 101.098L436.145 92.9078L432.149 92.7322L431.789 100.922L435.785 101.098ZM433.882 94.8025C441.088 95.7632 446.392 96.26 449.717 96.26V92.26C446.681 92.26 441.606 91.7968 434.411 90.8375L433.882 94.8025ZM449.717 96.26C452.946 96.26 455.669 95.8844 457.484 94.8119L455.449 91.3681C454.624 91.8556 452.847 92.26 449.717 92.26V96.26ZM457.451 94.8311C459.555 93.6419 460.537 91.6232 460.537 89.22H456.537C456.537 90.4168 456.139 90.9781 455.483 91.3489L457.451 94.8311ZM460.537 89.22C460.537 88.0829 460.329 86.9797 459.804 86.0019C459.267 85.0014 458.458 84.2447 457.451 83.7411L455.662 87.3189C455.975 87.4753 456.156 87.6636 456.279 87.8931C456.415 88.1453 456.537 88.5571 456.537 89.22H460.537ZM457.549 83.7935C456.656 83.2831 455.33 82.8635 453.766 82.4839C452.148 82.0912 450.087 81.699 447.6 81.3047L446.973 85.2553C449.406 85.641 451.35 86.0138 452.822 86.3711C454.349 86.7415 455.198 87.0569 455.564 87.2665L457.549 83.7935ZM447.627 81.3092C442.886 80.4898 439.691 79.2712 437.79 77.8201L435.363 80.9999C438.022 83.0288 441.967 84.3902 446.946 85.2508L447.627 81.3092ZM437.79 77.8201C436.246 76.6418 435.157 74.2484 435.157 69.87H431.157C431.157 74.7316 432.347 78.6982 435.363 80.9999L437.79 77.8201ZM435.157 69.87C435.157 65.7471 436.516 62.962 439.017 61.1348L436.657 57.9052C432.917 60.638 431.157 64.7529 431.157 69.87H435.157ZM439.002 61.1454C441.764 59.1654 445.376 58.1 449.987 58.1V54.1C444.757 54.1 440.27 55.3146 436.671 57.8946L439.002 61.1454ZM449.987 58.1C453.673 58.1 458.262 58.5622 463.778 59.511L464.456 55.569C458.811 54.5978 453.98 54.1 449.987 54.1V58.1ZM463.737 59.5036L466.527 60.0436L467.287 56.1164L464.497 55.5764L463.737 59.5036ZM464.907 58.0361L464.727 66.2261L468.726 66.3139L468.906 58.1239L464.907 58.0361ZM501.894 65.37V67.37H503.894V65.37H501.894ZM489.474 65.37V63.37H487.474V65.37H489.474ZM490.284 92.46L492.108 91.6393V91.6393L490.284 92.46ZM494.424 94.26V96.26H494.461L494.497 96.2587L494.424 94.26ZM501.804 93.99L503.801 93.8752L503.688 91.9197L501.731 91.9913L501.804 93.99ZM502.254 101.82L502.635 103.783L504.351 103.45L504.251 101.705L502.254 101.82ZM482.544 99.48L480.979 100.724L480.988 100.737L480.998 100.749L482.544 99.48ZM479.754 65.37H481.754V63.37H479.754V65.37ZM473.994 65.37H471.994V67.37H473.994V65.37ZM473.994 57V55H471.994V57H473.994ZM479.754 57V59H481.754V57H479.754ZM479.754 43.95V41.95H477.754V43.95H479.754ZM489.474 43.95H491.474V41.95H489.474V43.95ZM489.474 57H487.474V59H489.474V57ZM501.894 57H503.894V55H501.894V57ZM501.894 63.37H489.474V67.37H501.894V63.37ZM487.474 65.37V85.17H491.474V65.37H487.474ZM487.474 85.17C487.474 87.0414 487.543 88.6437 487.689 89.9584C487.831 91.235 488.06 92.3918 488.46 93.2807L492.108 91.6393C491.968 91.3282 491.793 90.67 491.664 89.5166C491.54 88.4013 491.474 86.9586 491.474 85.17H487.474ZM488.46 93.2807C489.509 95.6108 492.001 96.26 494.424 96.26V92.26C493.469 92.26 492.87 92.1273 492.522 91.9759C492.218 91.8438 492.144 91.7203 492.108 91.6393L488.46 93.2807ZM494.497 96.2587L501.877 95.9887L501.731 91.9913L494.351 92.2613L494.497 96.2587ZM499.807 94.1048L500.257 101.935L504.251 101.705L503.801 93.8752L499.807 94.1048ZM501.873 99.8566C497.884 100.631 494.977 100.99 493.074 100.99V104.99C495.372 104.99 498.584 104.569 502.635 103.783L501.873 99.8566ZM493.074 100.99C488.175 100.99 485.435 99.8499 484.09 98.2114L480.998 100.749C483.494 103.79 487.774 104.99 493.074 104.99V100.99ZM484.11 98.2355C483.446 97.4007 482.839 96.0469 482.409 94.0048C481.982 91.9802 481.754 89.406 481.754 86.25H477.754C477.754 89.574 477.992 92.4448 478.495 94.8302C478.994 97.1981 479.782 99.2193 480.979 100.724L484.11 98.2355ZM481.754 86.25V65.37H477.754V86.25H481.754ZM479.754 63.37H473.994V67.37H479.754V63.37ZM475.994 65.37V57H471.994V65.37H475.994ZM473.994 59H479.754V55H473.994V59ZM481.754 57V43.95H477.754V57H481.754ZM479.754 45.95H489.474V41.95H479.754V45.95ZM487.474 43.95V57H491.474V43.95H487.474ZM489.474 59H501.894V55H489.474V59ZM499.894 57V65.37H503.894V57H499.894Z" fill="white"/>
<path d="M1.8 102L17.01 40.35H36.9L52.2 102H42.12L38.79 88.77H15.12L11.79 102H1.8ZM24.75 48.72L17.1 79.95H36.81L29.25 48.72H24.75ZM54.1807 57H64.4407L73.0807 93.63H75.9607L84.9607 57H94.9507L83.2507 102H65.7907L54.1807 57ZM135.304 70.86V91.38C135.364 92.7 135.694 93.69 136.294 94.35C136.954 94.95 137.944 95.34 139.264 95.52L138.994 102.99C133.834 102.99 129.844 101.88 127.024 99.66C122.224 101.88 117.394 102.99 112.534 102.99C103.594 102.99 99.1245 98.22 99.1245 88.68C99.1245 84.12 100.324 80.82 102.724 78.78C105.184 76.74 108.934 75.51 113.974 75.09L125.584 74.1V70.86C125.584 68.46 125.044 66.78 123.964 65.82C122.944 64.86 121.414 64.38 119.374 64.38C115.534 64.38 110.734 64.62 104.974 65.1L102.094 65.28L101.734 58.35C108.274 56.79 114.274 56.01 119.734 56.01C125.254 56.01 129.214 57.21 131.614 59.61C134.074 61.95 135.304 65.7 135.304 70.86ZM115.144 82.02C111.004 82.38 108.934 84.63 108.934 88.77C108.934 92.91 110.764 94.98 114.424 94.98C117.424 94.98 120.604 94.5 123.964 93.54L125.584 93V81.03L115.144 82.02ZM157.43 102H147.62V57H157.34V59.79C161.72 57.27 165.86 56.01 169.76 56.01C175.76 56.01 179.84 57.72 182 61.14C184.22 64.5 185.33 70.08 185.33 77.88V102H175.61V78.15C175.61 73.29 175.07 69.84 173.99 67.8C172.97 65.76 170.84 64.74 167.6 64.74C164.54 64.74 161.6 65.34 158.78 66.54L157.43 67.08V102ZM220.961 65.37H208.541V85.17C208.541 88.83 208.811 91.26 209.351 92.46C209.891 93.66 211.271 94.26 213.491 94.26L220.871 93.99L221.321 101.82C217.301 102.6 214.241 102.99 212.141 102.99C207.041 102.99 203.531 101.82 201.611 99.48C199.751 97.14 198.821 92.73 198.821 86.25V65.37H193.061V57H198.821V43.95H208.541V57H220.961V65.37ZM229.006 102V57H238.816V102H229.006ZM229.006 49.35V39H238.816V49.35H229.006ZM281.945 66.27C274.865 65.31 269.735 64.83 266.555 64.83C263.375 64.83 261.155 65.22 259.895 66C258.695 66.72 258.095 67.89 258.095 69.51C258.095 71.13 258.755 72.27 260.075 72.93C261.455 73.59 264.635 74.37 269.615 75.27C274.655 76.11 278.225 77.46 280.325 79.32C282.425 81.18 283.475 84.48 283.475 89.22C283.475 93.96 281.945 97.44 278.885 99.66C275.885 101.88 271.475 102.99 265.655 102.99C261.995 102.99 257.375 102.48 251.795 101.46L249.005 101.01L249.365 92.82C256.565 93.78 261.755 94.26 264.935 94.26C268.115 94.26 270.365 93.87 271.685 93.09C273.065 92.31 273.755 91.02 273.755 89.22C273.755 87.42 273.095 86.19 271.775 85.53C270.515 84.81 267.425 84.06 262.505 83.28C257.645 82.44 254.075 81.15 251.795 79.41C249.515 77.67 248.375 74.49 248.375 69.87C248.375 65.25 249.935 61.8 253.055 59.52C256.235 57.24 260.285 56.1 265.205 56.1C269.045 56.1 273.755 56.58 279.335 57.54L282.125 58.08L281.945 66.27Z" fill="white"/>
</svg>
