<svg width="28" height="28" viewBox="0 0 28 28" fill="none" xmlns="http://www.w3.org/2000/svg">
<path d="M23.7342 14.916L14.6588 4.45702C14.5767 4.36238 14.4753 4.28648 14.3614 4.23446C14.2474 4.18244 14.1237 4.15552 13.9984 4.15552C13.8732 4.15552 13.7494 4.18244 13.6354 4.23446C13.5215 4.28648 13.4201 4.36238 13.3381 4.45702L4.2654 14.916C4.23798 14.9475 4.22021 14.9863 4.21419 15.0276C4.20817 15.069 4.21416 15.1112 4.23145 15.1492C4.24874 15.1872 4.27659 15.2195 4.3117 15.2421C4.34681 15.2648 4.38768 15.2769 4.42946 15.2769H6.64431C6.77009 15.2769 6.8904 15.2222 6.97517 15.1265L12.9607 8.22772V23.625C12.9607 23.7453 13.0592 23.8437 13.1795 23.8437H14.8201C14.9404 23.8437 15.0388 23.7453 15.0388 23.625V8.22772L21.0244 15.1265C21.1064 15.2222 21.2267 15.2769 21.3552 15.2769H23.5701C23.756 15.2769 23.8572 15.0582 23.7342 14.916Z" fill="#D46BFE"/>
</svg>
