<svg width="38" height="38" viewBox="0 0 38 38" fill="none" xmlns="http://www.w3.org/2000/svg">
<path d="M32.2108 20.2432L19.8942 6.04883C19.7828 5.92039 19.6452 5.81738 19.4906 5.74678C19.336 5.67619 19.168 5.63965 18.998 5.63965C18.828 5.63965 18.66 5.67619 18.5054 5.74678C18.3508 5.81738 18.2131 5.92039 18.1018 6.04883L5.7889 20.2432C5.75169 20.2859 5.72756 20.3385 5.71939 20.3946C5.71123 20.4507 5.71936 20.508 5.74282 20.5596C5.76628 20.6112 5.80409 20.655 5.85173 20.6858C5.89938 20.7165 5.95485 20.7329 6.01155 20.733H9.01741C9.18812 20.733 9.3514 20.6588 9.46644 20.5289L17.5897 11.1662V32.0625C17.5897 32.2258 17.7233 32.3594 17.8866 32.3594H20.1131C20.2764 32.3594 20.41 32.2258 20.41 32.0625V11.1662L28.5332 20.5289C28.6446 20.6588 28.8078 20.733 28.9823 20.733H31.9881C32.2405 20.733 32.3778 20.4361 32.2108 20.2432Z" fill="#D46BFE"/>
</svg>
