<svg width="24" height="28" viewBox="0 0 24 28" fill="none" xmlns="http://www.w3.org/2000/svg">
<path d="M15.9998 22V23C15.9998 24.0609 15.5784 25.0783 14.8282 25.8284C14.0781 26.5786 13.0607 27 11.9998 27C10.939 27 9.92154 26.5786 9.17139 25.8284C8.42125 25.0783 7.99982 24.0609 7.99982 23V22M22.7298 19.9644C21.1248 18 19.9917 17 19.9917 11.5844C19.9917 6.625 17.4592 4.85812 15.3748 4C15.0979 3.88625 14.8373 3.625 14.7529 3.34062C14.3873 2.09625 13.3623 1 11.9998 1C10.6373 1 9.61169 2.09688 9.24982 3.34188C9.16544 3.62938 8.90482 3.88625 8.62794 4C6.54107 4.85938 4.01107 6.62 4.01107 11.5844C4.00794 17 2.87482 18 1.26982 19.9644C0.604821 20.7781 1.18732 22 2.35045 22H21.6554C22.8123 22 23.3911 20.7744 22.7298 19.9644Z" stroke="white" stroke-linecap="round" stroke-linejoin="round"/>
</svg>
