<svg width="26" height="26" viewBox="0 0 26 26" fill="none" xmlns="http://www.w3.org/2000/svg">
<path d="M13.0002 1.33333C6.56716 1.33333 1.3335 6.567 1.3335 13V17.8335C1.3335 19.0282 2.38 20 3.66683 20H4.8335C5.14292 20 5.43966 19.8771 5.65845 19.6583C5.87725 19.4395 6.00016 19.1427 6.00016 18.8333V12.8332C6.00016 12.5237 5.87725 12.227 5.65845 12.0082C5.43966 11.7894 5.14292 11.6665 4.8335 11.6665H3.77416C4.42283 7.1515 8.30783 3.66666 13.0002 3.66666C17.6925 3.66666 21.5775 7.1515 22.2262 11.6665H21.1668C20.8574 11.6665 20.5607 11.7894 20.3419 12.0082C20.1231 12.227 20.0002 12.5237 20.0002 12.8332V20C20.0002 21.2868 18.9537 22.3333 17.6668 22.3333H15.3335V21.1667H10.6668V24.6667H17.6668C20.2405 24.6667 22.3335 22.5737 22.3335 20C23.6203 20 24.6668 19.0282 24.6668 17.8335V13C24.6668 6.567 19.4332 1.33333 13.0002 1.33333Z" stroke="white"/>
</svg>
